# xmcd CD database file
#
# Track frame offsets:
#	150
#	34290
#	70898
#	109387
#	153634
#	179910
#	210312
#
# Disc length: 3250 seconds
#
# Revision: 10
# Processed by: cddbd v1.5.2PL0 Copyright (c) Steve Scherf et al.
# Submitted via: CDex 1.51
#
DISCID=680cb007
DTITLE=Keith Jarrett, Gary Peacock, Jack DeJohnette - Whisper Not - Live In Paris 1999 [CD1]
DYEAR=2000
DGENRE=Jazz
TTITLE0=Bouncing With Bud
TTITLE1=Whisper Not
TTITLE2=Groovin' High
TTITLE3=Chelsea Bridge
TTITLE4=Wrap Your Troubles In Dreams
TTITLE5=Round Midnight
TTITLE6=Sandu
EXTD=YEAR: 2000
EXTT0=
EXTT1=
EXTT2=
EXTT3=
EXTT4=
EXTT5=
EXTT6=
PLAYORDER=
